<svg width="24" height="24" viewBox="0 0 24 24" fill="none" xmlns="http://www.w3.org/2000/svg">
<g clip-path="url(#clip0_1_36)">
<path d="M15 11V5.83004C15 5.30004 14.79 4.79004 14.41 4.42004L12.7 2.71004C12.31 2.32004 11.68 2.32004 11.29 2.71004L9.59 4.41004C9.21 4.79004 9 5.30004 9 5.83004V7.00004H5C3.9 7.00004 3 7.90004 3 9.00004V19C3 20.1 3.9 21 5 21H19C20.1 21 21 20.1 21 19V13C21 11.9 20.1 11 19 11H15ZM7 19H5V17H7V19ZM7 15H5V13H7V15ZM7 11H5V9.00004H7V11ZM13 19H11V17H13V19ZM13 15H11V13H13V15ZM13 11H11V9.00004H13V11ZM13 7.00004H11V5.00004H13V7.00004ZM19 19H17V17H19V19ZM19 15H17V13H19V15Z" fill="#828282"/>
</g>
<defs>
<clipPath id="clip0_1_36">
<rect width="24" height="24" fill="white"/>
</clipPath>
</defs>
</svg> 