<svg width="23" height="25" viewBox="0 0 23 25" fill="none" xmlns="http://www.w3.org/2000/svg">
<g clip-path="url(#clip0_1_92)">
<path d="M16.2143 12.2857H12.2857V16.2143C12.2857 16.6464 11.9321 17 11.5 17C11.0679 17 10.7143 16.6464 10.7143 16.2143V12.2857H6.78571C6.35357 12.2857 6 11.9321 6 11.5C6 11.0679 6.35357 10.7143 6.78571 10.7143H10.7143V6.78571C10.7143 6.35357 11.0679 6 11.5 6C11.9321 6 12.2857 6.35357 12.2857 6.78571V10.7143H16.2143C16.6464 10.7143 17 11.0679 17 11.5C17 11.9321 16.6464 12.2857 16.2143 12.2857Z" fill="#828282"/>
</g>
<defs>
<clipPath id="clip0_1_92">
<rect width="24" height="24" fill="white" transform="translate(0.0942993 0.407471)"/>
</clipPath>
</defs>
</svg> 